<?xml version="1.0" encoding="UTF-8" standalone="no"?>
<!DOCTYPE svg PUBLIC "-//W3C//DTD SVG 1.1//EN" "http://www.w3.org/Graphics/SVG/1.1/DTD/svg11.dtd">
<svg width="140px" height="140px" version="1.1" xmlns="http://www.w3.org/2000/svg" xmlns:xlink="http://www.w3.org/1999/xlink" xml:space="preserve" xmlns:serif="http://www.serif.com/" style="fill-rule:evenodd;clip-rule:evenodd;stroke-linejoin:round;stroke-miterlimit:2;">
    <g>
        <path d="M73.281,27.831C86.41,32.136 97.992,39.823 107.062,49.836C108.556,48.498 110.328,47.714 112.235,47.714C112.795,47.714 113.342,47.795 113.874,47.923C117.232,38.552 118.425,28.456 116.891,18.191C116.883,18.128 116.865,18.068 116.856,18.004C110.728,12.481 103.62,8.028 95.822,4.93C87.496,11.111 79.845,18.812 73.281,27.831Z" style="fill:rgb(217,70,239);fill-rule:nonzero;"/>
        <path d="M41.536,24.297C43.937,24.071 46.358,23.914 48.819,23.914C55.055,23.914 61.112,24.654 66.925,26.029C73.644,16.885 81.489,9.111 90.013,2.919C83.673,1.026 76.956,0 69.999,0C61.893,0 54.115,1.394 46.875,3.929C42.985,9.195 39.77,14.98 37.283,21.138C39.118,21.778 40.616,22.869 41.536,24.297Z" style="fill:rgb(217,70,239);fill-rule:nonzero;"/>
        <path d="M33.758,36.525C33.43,36.603 33.104,36.666 32.78,36.719C32.001,41.136 31.571,45.673 31.571,50.313C31.571,63.679 34.969,76.233 40.887,87.23C42.163,87.064 43.489,87.064 44.828,87.212C45.54,73.406 48.981,59.103 55.479,45.288C57.561,40.861 59.891,36.652 62.419,32.653C56.794,31.371 50.939,30.695 44.923,30.695C43.847,30.695 42.784,30.756 41.718,30.804C40.376,33.421 37.468,35.642 33.758,36.525Z" style="fill:rgb(217,70,239);fill-rule:nonzero;"/>
        <path d="M68.825,34.431C66.4,38.309 64.155,42.38 62.144,46.658C55.531,60.716 52.095,75.274 51.473,89.304C54.038,90.698 56.103,92.628 57.554,94.83C76.67,90.758 92.769,80.435 103.466,66.731C102.918,65.039 102.606,63.166 102.606,61.188C102.606,59.586 102.818,58.054 103.182,56.63C93.979,46.468 82.192,38.704 68.825,34.431Z" style="fill:rgb(217,70,239);fill-rule:nonzero;"/>
        <path d="M30.303,94.738C31.132,92.778 32.464,91.164 34.114,89.921C28.227,78.942 24.864,66.407 24.864,53.077C24.864,47.324 25.552,41.74 26.741,36.345C25.178,35.841 23.845,35.016 22.883,33.936C17.07,35.635 11.525,37.958 6.352,40.873C2.286,49.744 0,59.604 0,70.001C0,75.976 0.753,81.773 2.161,87.307C10.484,91.821 19.869,94.846 29.834,96.079C29.963,95.628 30.116,95.18 30.303,94.738Z" style="fill:rgb(217,70,239);fill-rule:nonzero;"/>
        <path d="M112.235,74.659C110.851,74.659 109.536,74.245 108.348,73.508C97.267,87.986 80.201,98.794 59.902,102.574C59.87,104.028 59.59,105.479 59.003,106.87C58.712,107.555 58.347,108.19 57.943,108.794C71.453,120.769 89.117,128.143 108.521,128.439C114.059,124.782 119.043,120.358 123.326,115.321C123.478,113.35 123.584,111.366 123.584,109.355C123.584,96.638 120.503,84.663 115.138,74.037C114.221,74.439 113.246,74.659 112.235,74.659Z" style="fill:rgb(217,70,239);fill-rule:nonzero;"/>
        <path d="M53.229,113.268C55.171,122.836 58.576,131.772 63.328,139.674C65.526,139.88 67.748,140 70.001,140C82.332,140 93.908,136.801 103.97,131.205C103.651,131.208 103.339,131.235 103.022,131.235C84.087,131.233 66.749,124.474 53.229,113.268Z" style="fill:rgb(217,70,239);fill-rule:nonzero;"/>
        <path d="M39.46,113.097C34.519,111.01 31.068,107.032 29.861,102.687C20.459,100.985 11.661,97.671 3.893,93.023C12.028,116.379 32.179,134.097 56.942,138.772C52.48,131.475 49.199,123.265 47.153,114.489C44.652,114.611 42.015,114.177 39.46,113.097Z" style="fill:rgb(217,70,239);fill-rule:nonzero;"/>
        <path d="M30.032,20.877C30.689,20.72 31.343,20.618 31.988,20.555C34.253,15.632 36.994,10.975 40.184,6.662C27.499,12.644 16.906,22.321 9.786,34.31C13.455,32.207 17.317,30.409 21.325,28.909C21.817,25.351 25.266,22.012 30.032,20.877Z" style="fill:rgb(217,70,239);fill-rule:nonzero;"/>
        <path d="M140,70.001C140,51.293 132.647,34.313 120.691,21.755C120.954,22.987 121.185,24.233 121.374,25.495C122.74,34.646 121.936,43.665 119.368,52.157C120.914,54.547 121.865,57.709 121.865,61.188C121.865,64.168 121.166,66.915 119.993,69.146C124.772,79.295 127.475,90.614 127.475,102.576C127.475,105.259 127.326,107.904 127.063,110.52C135.197,99.081 140,85.106 140,70.001Z" style="fill:rgb(217,70,239);fill-rule:nonzero;"/>
        <path d="M41.941,107.218C46.073,108.965 50.636,107.512 52.132,103.973C53.628,100.434 51.491,96.149 47.358,94.402C43.226,92.655 38.663,94.108 37.167,97.647C35.671,101.186 37.808,105.471 41.941,107.218Z" style="fill:rgb(217,70,239);fill-rule:nonzero;"/>
        <path d="M112.235,66.895C114.487,66.895 116.313,64.339 116.313,61.186C116.313,58.033 114.487,55.478 112.235,55.478C109.982,55.478 108.156,58.033 108.156,61.186C108.156,64.339 109.982,66.895 112.235,66.895Z" style="fill:rgb(217,70,239);fill-rule:nonzero;"/>
        <path d="M32.686,32.029C35.146,31.442 36.785,29.476 36.347,27.638C35.908,25.799 33.559,24.784 31.099,25.37C28.639,25.956 27,27.923 27.438,29.761C27.877,31.6 30.226,32.615 32.686,32.029Z" style="fill:rgb(217,70,239);fill-rule:nonzero;"/>
    </g>
</svg>
